<svg width="41" height="41" fill="none" xmlns="http://www.w3.org/2000/svg"><path d="M17.083 34.167l-2.135-4.271-4.698.854m6.833-23.917l-2.135 4.271-4.698-.854m13.666 23.917l2.136-4.271 4.698.854M23.916 6.833l2.136 4.271 4.698-.854" stroke="#000" stroke-width="2" stroke-linecap="round" stroke-linejoin="round"/><path d="M29.042 35.875l-5.125-10.25h-6.834m11.958-20.5l-5.125 10.25L26.48 20.5m-23.063 0H14.52l2.562-5.125m17.084 1.708L31.604 20.5l2.563 3.417" stroke="#000" stroke-width="2" stroke-linecap="round" stroke-linejoin="round"/><path d="M37.583 20.5H26.48l-2.563 5.125M6.833 17.083L9.396 20.5l-2.563 3.417m5.126 11.958l5.125-10.25L14.52 20.5M11.959 5.125l5.125 10.25h6.833" stroke="#000" stroke-width="2" stroke-linecap="round" stroke-linejoin="round"/></svg>